<svg width="48" height="48" viewBox="0 0 48 48" fill="none" xmlns="http://www.w3.org/2000/svg">
<path d="M17 12.5H30" stroke="#FF498B" stroke-width="2" stroke-linecap="round"/>
<path d="M41.9701 47.0905C42.5723 47.6593 43.5217 47.6322 44.0905 47.0299C44.6593 46.4277 44.6322 45.4783 44.0299 44.9095L41.9701 47.0905ZM43.9603 31.1523C44.5967 30.622 44.6827 29.6761 44.1523 29.0397C43.622 28.4033 42.6761 28.3173 42.0397 28.8477L43.9603 31.1523ZM42.193 45.2378L41.1631 46.3284L42.193 45.2378ZM44.0299 44.9095L43.2229 44.1473L41.1631 46.3284L41.9701 47.0905L44.0299 44.9095ZM43.6177 31.4378L43.9603 31.1523L42.0397 28.8477L41.6971 29.1332L43.6177 31.4378ZM43.2229 44.1473C39.5186 40.6488 39.7034 34.6997 43.6177 31.4378L41.6971 29.1332C36.4013 33.5463 36.1514 41.5951 41.1631 46.3284L43.2229 44.1473Z" fill="#152C5B"/>
<path d="M6.02993 28.9095C5.42766 28.3407 4.4783 28.3678 3.90948 28.9701C3.34066 29.5723 3.36779 30.5217 3.97006 31.0905L6.02993 28.9095ZM4.03972 44.8477C3.40331 45.378 3.31732 46.3239 3.84767 46.9603C4.37801 47.5967 5.32386 47.6827 5.96028 47.1523L4.03972 44.8477ZM5.80699 30.7622L6.83693 29.6716L5.80699 30.7622ZM3.97006 31.0905L4.77706 31.8527L6.83693 29.6716L6.02993 28.9095L3.97006 31.0905ZM4.38232 44.5622L4.03972 44.8477L5.96028 47.1523L6.30287 46.8668L4.38232 44.5622ZM4.77706 31.8527C8.48137 35.3512 8.2966 41.3003 4.38232 44.5622L6.30287 46.8668C11.5987 42.4537 11.8486 34.4049 6.83693 29.6716L4.77706 31.8527Z" fill="#152C5B"/>
<path d="M33.9701 47.0905C34.5723 47.6593 35.5217 47.6322 36.0905 47.0299C36.6593 46.4277 36.6322 45.4783 36.0299 44.9095L33.9701 47.0905ZM35.9603 31.1523C36.5967 30.622 36.6827 29.6761 36.1523 29.0397C35.622 28.4033 34.6761 28.3173 34.0397 28.8477L35.9603 31.1523ZM34.193 45.2378L33.1631 46.3284L34.193 45.2378ZM36.0299 44.9095L35.2229 44.1473L33.1631 46.3284L33.9701 47.0905L36.0299 44.9095ZM35.6177 31.4378L35.9603 31.1523L34.0397 28.8477L33.6971 29.1332L35.6177 31.4378ZM35.2229 44.1473C31.5186 40.6488 31.7034 34.6997 35.6177 31.4378L33.6971 29.1332C28.4013 33.5463 28.1514 41.5951 33.1631 46.3284L35.2229 44.1473Z" fill="#152C5B"/>
<path d="M14.0299 28.9095C13.4277 28.3407 12.4783 28.3678 11.9095 28.9701C11.3407 29.5723 11.3678 30.5217 11.9701 31.0905L14.0299 28.9095ZM12.0397 44.8477C11.4033 45.378 11.3173 46.3239 11.8477 46.9603C12.378 47.5967 13.3239 47.6827 13.9603 47.1523L12.0397 44.8477ZM13.807 30.7622L14.8369 29.6716L13.807 30.7622ZM11.9701 31.0905L12.7771 31.8527L14.8369 29.6716L14.0299 28.9095L11.9701 31.0905ZM12.3823 44.5622L12.0397 44.8477L13.9603 47.1523L14.3029 46.8668L12.3823 44.5622ZM12.7771 31.8527C16.4814 35.3512 16.2966 41.3003 12.3823 44.5622L14.3029 46.8668C19.5987 42.4537 19.8486 34.4049 14.8369 29.6716L12.7771 31.8527Z" fill="#152C5B"/>
<path d="M1.5 8C1.5 6.61929 2.61929 5.5 4 5.5H44C45.3807 5.5 46.5 6.61929 46.5 8V23C46.5 24.3807 45.3807 25.5 44 25.5H4C2.61929 25.5 1.5 24.3807 1.5 23V8Z" stroke="#152C5B" stroke-width="3"/>
<path d="M1.5 19.5H46.5V23C46.5 24.3807 45.3807 25.5 44 25.5H4C2.61929 25.5 1.5 24.3807 1.5 23V19.5Z" stroke="#152C5B" stroke-width="3"/>
</svg>
