<svg width="48" height="48" viewBox="0 0 48 48" fill="none" xmlns="http://www.w3.org/2000/svg">
<path d="M2 3L2 41.5032" stroke="#152C5B" stroke-width="5" stroke-linecap="round"/>
<path d="M46 12.5L46 41.5" stroke="#152C5B" stroke-width="5" stroke-linecap="round"/>
<path d="M45.5 29L24.75 29L4 29" stroke="#152C5B" stroke-width="10" stroke-linecap="round"/>
<path d="M16 18C16 20.7614 13.7614 23 11 23C8.23858 23 6 20.7614 6 18C6 15.2386 8.23858 13 11 13C13.7614 13 16 15.2386 16 18Z" fill="#C4C4C4"/>
<path d="M17 13C17 11.8954 17.8954 11 19 11H40C41.1046 11 42 11.8954 42 13V23H17V13Z" fill="#FF498B"/>
</svg>
