<svg width="48" height="48" viewBox="0 0 48 48" fill="none" xmlns="http://www.w3.org/2000/svg">
<path d="M4.73452 22.4274C5.00023 21.2981 6.00793 20.5 7.16806 20.5H40.8319C41.9921 20.5 42.9998 21.2981 43.2655 22.4274L45.9615 33.8855C46.0354 34.1993 45.7972 34.5 45.4748 34.5H2.52521C2.20278 34.5 1.96465 34.1993 2.0385 33.8855L4.73452 22.4274Z" stroke="#152C5B" stroke-width="3"/>
<path d="M7 34H11V45C11 46.1046 10.1046 47 9 47C7.89543 47 7 46.1046 7 45V34Z" stroke="#152C5B" stroke-width="2"/>
<path d="M37 34H41V45C41 46.1046 40.1046 47 39 47C37.8954 47 37 46.1046 37 45V34Z" stroke="#152C5B" stroke-width="2"/>
<line x1="14.5" y1="15" x2="14.5" y2="20" stroke="#152C5B" stroke-width="3"/>
<line x1="33.5" y1="15" x2="33.5" y2="20" stroke="#152C5B" stroke-width="3"/>
<path d="M11 8H18V13C18 14.6569 16.6569 16 15 16H14C12.3431 16 11 14.6569 11 13V8Z" stroke="#FF498B" stroke-width="2"/>
<path d="M30 8H37V13C37 14.6569 35.6569 16 34 16H33C31.3431 16 30 14.6569 30 13V8Z" stroke="#FF498B" stroke-width="2"/>
</svg>
