<svg width="48" height="48" viewBox="0 0 48 48" fill="none" xmlns="http://www.w3.org/2000/svg">
<path d="M24 30L24 17" stroke="#FF498B" stroke-width="2" stroke-linecap="round"/>
<path d="M4 46.5C2.61929 46.5 1.5 45.3807 1.5 44L1.5 4C1.5 2.61929 2.61929 1.5 4 1.5L27 1.5C28.3807 1.5 29.5 2.61929 29.5 4L29.5 44C29.5 45.3807 28.3807 46.5 27 46.5L4 46.5Z" stroke="#152C5B" stroke-width="3"/>
<path d="M4 46.5C2.61929 46.5 1.5 45.3807 1.5 44L1.5 4C1.5 2.61929 2.61929 1.5 4 1.5L11.5 1.5L11.5 46.5L4 46.5Z" stroke="#152C5B" stroke-width="3"/>
</svg>
