<svg width="48" height="48" viewBox="0 0 48 48" fill="none" xmlns="http://www.w3.org/2000/svg">
<path d="M46.5 35C46.5 36.3807 45.3807 37.5 44 37.5L4 37.5C2.61929 37.5 1.5 36.3807 1.5 35L1.5 12C1.5 10.6193 2.61929 9.5 4 9.5L44 9.5C45.3807 9.5 46.5 10.6193 46.5 12L46.5 35Z" stroke="#152C5B" stroke-width="3"/>
<path d="M27.2169 22.5659C27.5528 22.7578 27.5528 23.2422 27.2169 23.4341L19.2481 27.9878C18.9147 28.1782 18.5 27.9376 18.5 27.5536V18.4464C18.5 18.0624 18.9147 17.8218 19.2481 18.0122L27.2169 22.5659Z" stroke="#FF498B" stroke-width="3"/>
<line x1="18.5" y1="38" x2="18.5" y2="47" stroke="#152C5B" stroke-width="3"/>
<line x1="29.5" y1="38" x2="29.5" y2="47" stroke="#152C5B" stroke-width="3"/>
<line x1="6.5" y1="46.5" x2="41.5" y2="46.5" stroke="#152C5B" stroke-width="3" stroke-linecap="round"/>
</svg>
