<svg width="48" height="48" viewBox="0 0 48 48" fill="none" xmlns="http://www.w3.org/2000/svg">
<path d="M11 32C13.8211 27.1488 18.3695 24 23.5 24C28.6305 24 33.1789 27.1488 36 32" stroke="#152C5B" stroke-width="3" stroke-linecap="round" stroke-linejoin="round"/>
<path d="M6 22C9.94955 17.1488 16.3172 14 23.5 14C30.6828 14 37.0504 17.1488 41 22" stroke="#152C5B" stroke-width="3" stroke-linecap="round" stroke-linejoin="round"/>
<path d="M4 12C8.51378 7.1488 15.7911 4 24 4C32.2089 4 39.4862 7.1488 44 12" stroke="#152C5B" stroke-width="3" stroke-linecap="round" stroke-linejoin="round"/>
<path d="M28.5 42C28.5 44.3745 26.3767 46.5 23.5 46.5C20.6233 46.5 18.5 44.3745 18.5 42C18.5 39.6255 20.6233 37.5 23.5 37.5C26.3767 37.5 28.5 39.6255 28.5 42Z" stroke="#FF498B" stroke-width="3"/>
</svg>
