<svg width="48" height="48" viewBox="0 0 48 48" fill="none" xmlns="http://www.w3.org/2000/svg">
<path d="M30.5 39.5C30.5 41.0205 29.3144 42.749 26.61 44.1857C23.9714 45.5875 20.2228 46.5 16 46.5C11.7772 46.5 8.02859 45.5875 5.39002 44.1857C2.6856 42.749 1.5 41.0205 1.5 39.5C1.5 37.9795 2.6856 36.251 5.39002 34.8143C8.02859 33.4125 11.7772 32.5 16 32.5C20.2228 32.5 23.9714 33.4125 26.61 34.8143C29.3144 36.251 30.5 37.9795 30.5 39.5Z" stroke="#152C5B" stroke-width="3"/>
<path d="M30.5 11.5663C30.5 12.9667 30.1063 15.3926 29.3318 18.3203C28.5657 21.2163 27.4562 24.4946 26.0895 27.5693C24.7167 30.6574 23.1163 33.4676 21.3937 35.4802C19.6374 37.5321 17.9789 38.5 16.5 38.5C15.0211 38.5 13.3626 37.5321 11.6063 35.4802C9.88372 33.4676 8.28328 30.6574 6.91052 27.5693C5.54375 24.4946 4.43426 21.2163 3.66819 18.3203C2.89374 15.3926 2.5 12.9667 2.5 11.5663C2.5 8.9536 3.91573 6.4712 6.43693 4.58986C8.9583 2.70839 12.5112 1.5 16.5 1.5C20.4888 1.5 24.0417 2.70839 26.5631 4.58986C29.0843 6.4712 30.5 8.9536 30.5 11.5663Z" fill="white" stroke="#152C5B" stroke-width="3"/>
<path d="M21.5 12C21.5 14.3745 19.3767 16.5 16.5 16.5C13.6233 16.5 11.5 14.3745 11.5 12C11.5 9.62551 13.6233 7.5 16.5 7.5C19.3767 7.5 21.5 9.62551 21.5 12Z" stroke="#FF498B" stroke-width="3"/>
</svg>
