<svg width="48" height="48" viewBox="0 0 48 48" fill="none" xmlns="http://www.w3.org/2000/svg">
<mask id="path-1-inside-1" fill="white">
<path fill-rule="evenodd" clip-rule="evenodd" d="M16.0378 0C15.1721 0 14.4046 0.556994 14.1363 1.38008L12.3041 7H8C3.58172 7 0 10.5817 0 15V40C0 44.4183 3.58172 48 8 48H40C44.4183 48 48 44.4183 48 40V15C48 10.5817 44.4183 7 40 7H35.6959L33.8637 1.38008C33.5954 0.556993 32.8279 0 31.9622 0H16.0378Z"/>
</mask>
<path d="M14.1363 1.38008L16.9885 2.30996V2.30996L14.1363 1.38008ZM12.3041 7V10H14.4814L15.1563 7.92989L12.3041 7ZM35.6959 7L32.8437 7.92989L33.5186 10H35.6959V7ZM33.8637 1.38008L36.716 0.45019V0.450187L33.8637 1.38008ZM16.9885 2.30996C16.8544 2.7215 16.4706 3 16.0378 3V-3C13.8735 -3 11.9549 -1.60751 11.284 0.450191L16.9885 2.30996ZM15.1563 7.92989L16.9885 2.30996L11.284 0.450191L9.45183 6.07011L15.1563 7.92989ZM8 10H12.3041V4H8V10ZM3 15C3 12.2386 5.23858 10 8 10V4C1.92487 4 -3 8.92487 -3 15H3ZM3 40V15H-3V40H3ZM8 45C5.23858 45 3 42.7614 3 40H-3C-3 46.0751 1.92487 51 8 51V45ZM40 45H8V51H40V45ZM45 40C45 42.7614 42.7614 45 40 45V51C46.0751 51 51 46.0751 51 40H45ZM45 15V40H51V15H45ZM40 10C42.7614 10 45 12.2386 45 15H51C51 8.92487 46.0751 4 40 4V10ZM35.6959 10H40V4H35.6959V10ZM31.0115 2.30996L32.8437 7.92989L38.5482 6.07011L36.716 0.45019L31.0115 2.30996ZM31.9622 3C31.5294 3 31.1456 2.7215 31.0115 2.30996L36.716 0.450187C36.0451 -1.60752 34.1265 -3 31.9622 -3V3ZM16.0378 3H31.9622V-3H16.0378V3Z" fill="#152C5B" mask="url(#path-1-inside-1)"/>
<path d="M34.5 28.5C34.5 33.9633 29.8598 38.5 24 38.5C18.1402 38.5 13.5 33.9633 13.5 28.5C13.5 23.0367 18.1402 18.5 24 18.5C29.8598 18.5 34.5 23.0367 34.5 28.5Z" stroke="#FF498B" stroke-width="3"/>
<line x1="40.5" y1="14.5" x2="34.5" y2="14.5" stroke="#152C5B" stroke-width="3" stroke-linecap="round"/>
</svg>
